<?xml version="1.0" encoding="UTF-8"?>
<svg xmlns="http://www.w3.org/2000/svg" id="Layer_1" data-name="Layer 1" viewBox="0 0 609.74 705.67">
	<title>anchor</title>
	<path d="M526.16,385l-69.07,66.07,21,6.12C448,506.56,393.74,528.28,331.9,532.54V282.24h57.31a26.4,26.4,0,1,0,.07-37.33l-.07.06H331.9V214.8a74.66,74.66,0,1,0-101.69-69.52c0,33.84,22.81,62.26,53.8,71.36v28.28H220.59a26.4,26.4,0,1,0-.09,37.35l.09-.08H284v250.1c-65.15-4.8-122-30.24-150.48-83.69L154.44,444,89.73,373.68,61,464.84l24.35-5.41c35.6,78,116.8,140.8,208.34,146.88l14.23,28.8,14.16-28.71c87.12-5.82,164.74-63.13,203.11-135.31L548.77,478ZM266.61,145.24a38.4,38.4,0,1,1,38.44,38.36h0a38.4,38.4,0,0,1-38.4-38.33Z" style="fill:#ba68c8" />
</svg>