<?xml version="1.0" encoding="UTF-8" standalone="no"?>
<!DOCTYPE svg PUBLIC "-//W3C//DTD SVG 1.1//EN" "http://www.w3.org/Graphics/SVG/1.1/DTD/svg11.dtd">
<svg width="100%" height="100%" viewBox="0 0 610 706" version="1.1" xmlns="http://www.w3.org/2000/svg" xmlns:xlink="http://www.w3.org/1999/xlink" xml:space="preserve" xmlns:serif="http://www.serif.com/" style="fill-rule:evenodd;clip-rule:evenodd;stroke-linejoin:round;stroke-miterlimit:2;">
    <g transform="matrix(0.856682,0,0,0.856682,107.79,113.439)">
        <path d="M526.16,385L457.09,451.07L478.09,457.19C448,506.56 393.74,528.28 331.9,532.54L331.9,282.24L389.21,282.24C394.162,287.212 400.898,290.01 407.915,290.01C422.398,290.01 434.315,278.093 434.315,263.61C434.315,249.127 422.398,237.21 407.915,237.21C400.932,237.21 394.226,239.981 389.28,244.91L389.21,244.97L331.9,244.97L331.9,214.8C360.55,203.672 379.53,175.94 379.53,145.205C379.53,104.248 345.827,70.545 304.87,70.545C263.913,70.545 230.21,104.248 230.21,145.205C230.21,145.23 230.21,145.255 230.21,145.28C230.21,179.12 253.02,207.54 284.01,216.64L284.01,244.92L220.59,244.92C215.638,239.948 208.902,237.15 201.885,237.15C187.402,237.15 175.485,249.067 175.485,263.55C175.485,278.033 187.402,289.95 201.885,289.95C208.858,289.95 215.555,287.187 220.5,282.27L220.59,282.19L284,282.19L284,532.29C218.85,527.49 162,502.05 133.52,448.6L154.44,444L89.73,373.68L61,464.84L85.35,459.43C120.95,537.43 202.15,600.23 293.69,606.31L307.92,635.11L322.08,606.4C409.2,600.58 486.82,543.27 525.19,471.09L548.77,478L526.16,385ZM266.61,145.24C266.61,145.227 266.61,145.213 266.61,145.2C266.61,124.134 283.944,106.8 305.01,106.8C326.076,106.8 343.41,124.134 343.41,145.2C343.41,166.251 326.1,183.578 305.05,183.6C284.011,183.6 266.688,166.309 266.65,145.27L266.61,145.24Z" style="fill:#7d5afc;fill-rule:nonzero;"/>
    </g>
    <g transform="matrix(3.39147e-17,0.553869,-1.37612,8.42628e-17,691.287,134.334)">
        <path d="M16.496,418.743L16.496,466.195L-166.895,390.875L16.496,315.556L16.496,363.007L435.659,363.007L435.659,418.743L16.496,418.743Z" style="fill:#7d5afc;"/>
    </g>
</svg>
